<svg width="48" height="48" viewBox="0 0 48 48" fill="none" xmlns="http://www.w3.org/2000/svg">
<circle cx="24" cy="24" r="23.5" stroke="url(#paint0_linear_95_100)"/>
<path d="M19.4072 17.7786C19.407 18.25 19.2273 18.7021 18.9076 19.0353C18.588 19.3685 18.1546 19.5556 17.7028 19.5554C17.2509 19.5551 16.8177 19.3676 16.4984 19.0341C16.179 18.7005 15.9998 18.2483 16 17.7768C16.0002 17.3053 16.1799 16.8533 16.4996 16.52C16.8192 16.1868 17.2526 15.9998 17.7045 16C18.1563 16.0002 18.5895 16.1878 18.9088 16.5213C19.2282 16.8549 19.4074 17.3071 19.4072 17.7786ZM19.4583 20.8717H16.0511V32H19.4583V20.8717ZM24.8417 20.8717H21.4516V32H24.8077V26.1603C24.8077 22.9072 28.8708 22.605 28.8708 26.1603V32H32.2354V24.9515C32.2354 19.4674 26.2217 19.6718 24.8077 22.365L24.8417 20.8717Z" fill="#181B34"/>
<defs>
<linearGradient id="paint0_linear_95_100" x1="5" y1="13" x2="39" y2="42" gradientUnits="userSpaceOnUse">
<stop stop-color="#425292"/>
<stop offset="0.5" stop-color="#FD8A45"/>
<stop offset="1" stop-color="#DD4C8A"/>
</linearGradient>
</defs>
</svg>
