<svg width="62" height="62" viewBox="0 0 62 62" fill="none" xmlns="http://www.w3.org/2000/svg">
<circle cx="31" cy="31" r="31" fill="url(#paint0_linear_95_75)" fill-opacity="0.3"/>
<circle cx="31" cy="31" r="21" fill="url(#paint1_linear_95_75)"/>
<path d="M31 31.5C32.6569 31.5 34 30.1569 34 28.5C34 26.8432 32.6569 25.5 31 25.5C29.3431 25.5 28 26.8432 28 28.5C28 30.1569 29.3431 31.5 31 31.5Z" stroke="white" stroke-width="2" stroke-linecap="round" stroke-linejoin="round"/>
<path d="M31 41C33 37 39 34.4183 39 29C39 24.5817 35.4183 21 31 21C26.5817 21 23 24.5817 23 29C23 34.4183 29 37 31 41Z" stroke="white" stroke-width="2" stroke-linecap="round" stroke-linejoin="round"/>
<defs>
<linearGradient id="paint0_linear_95_75" x1="0" y1="0" x2="62" y2="62" gradientUnits="userSpaceOnUse">
<stop offset="0.2" stop-color="#425292"/>
<stop offset="0.6" stop-color="#FD8A45"/>
<stop offset="1" stop-color="#DD4C8A"/>
</linearGradient>
<linearGradient id="paint1_linear_95_75" x1="10" y1="10" x2="52" y2="52" gradientUnits="userSpaceOnUse">
<stop offset="0.2" stop-color="#425292"/>
<stop offset="0.6" stop-color="#FD8A45"/>
<stop offset="1" stop-color="#DD4C8A"/>
</linearGradient>
</defs>
</svg>
