<svg width="62" height="62" viewBox="0 0 62 62" fill="none" xmlns="http://www.w3.org/2000/svg">
<circle cx="31" cy="31" r="31" fill="url(#paint0_linear_95_68)" fill-opacity="0.3"/>
<circle cx="31" cy="31" r="21" fill="url(#paint1_linear_95_68)"/>
<path d="M27.3803 27.8533C28.0763 29.303 29.0251 30.6616 30.2266 31.8632C31.4282 33.0648 32.7869 34.0136 34.2365 34.7096C34.3612 34.7694 34.4235 34.7994 34.5024 34.8224C34.7828 34.9041 35.127 34.8454 35.3644 34.6754C35.4313 34.6275 35.4884 34.5704 35.6027 34.4561C35.9523 34.1064 36.1271 33.9316 36.3029 33.8174C36.9658 33.3864 37.8204 33.3864 38.4833 33.8174C38.6591 33.9316 38.8339 34.1064 39.1835 34.4561L39.3783 34.6509C39.9098 35.1824 40.1755 35.4481 40.3198 35.7335C40.6069 36.301 40.6069 36.9713 40.3198 37.5389C40.1755 37.8242 39.9098 38.09 39.3783 38.6214L39.2207 38.779C38.6911 39.3087 38.4263 39.5735 38.0662 39.7757C37.6667 40.0001 37.0462 40.1615 36.588 40.1601C36.1751 40.1589 35.8928 40.0788 35.3284 39.9186C32.295 39.0576 29.4326 37.4332 27.0447 35.0452C24.6567 32.6572 23.0322 29.7948 22.1712 26.7614C22.011 26.197 21.9309 25.9148 21.9297 25.5018C21.9283 25.0436 22.0897 24.4231 22.3141 24.0236C22.5164 23.6636 22.7812 23.3988 23.3108 22.8691L23.4684 22.7115C23.9999 22.1801 24.2656 21.9143 24.551 21.77C25.1185 21.4829 25.7888 21.4829 26.3564 21.77C26.6417 21.9143 26.9075 22.1801 27.4389 22.7115L27.6338 22.9064C27.9834 23.256 28.1582 23.4308 28.2725 23.6066C28.7035 24.2695 28.7035 25.124 28.2725 25.7869C28.1582 25.9627 27.9834 26.1375 27.6338 26.4871C27.5195 26.6014 27.4623 26.6586 27.4145 26.7254C27.2445 26.9628 27.1858 27.3071 27.2675 27.5874C27.2905 27.6663 27.3204 27.7287 27.3803 27.8533Z" stroke="white" stroke-width="2" stroke-linecap="round" stroke-linejoin="round"/>
<defs>
<linearGradient id="paint0_linear_95_68" x1="0" y1="0" x2="62" y2="62" gradientUnits="userSpaceOnUse">
<stop offset="0.2" stop-color="#425292"/>
<stop offset="0.6" stop-color="#FD8A45"/>
<stop offset="1" stop-color="#DD4C8A"/>
</linearGradient>
<linearGradient id="paint1_linear_95_68" x1="10" y1="10" x2="52" y2="52" gradientUnits="userSpaceOnUse">
<stop offset="0.2" stop-color="#425292"/>
<stop offset="0.6" stop-color="#FD8A45"/>
<stop offset="1" stop-color="#DD4C8A"/>
</linearGradient>
</defs>
</svg>
