<svg width="48" height="48" viewBox="0 0 48 48" fill="none" xmlns="http://www.w3.org/2000/svg">
<circle cx="24" cy="24" r="23.5" stroke="url(#paint0_linear_95_97)"/>
<path d="M29.0597 19.8202C29.0598 20.0033 29.0055 20.1823 28.9038 20.3346C28.8021 20.4868 28.6575 20.6055 28.4884 20.6756C28.3192 20.7457 28.1331 20.764 27.9535 20.7283C27.7739 20.6926 27.6089 20.6044 27.4794 20.475C27.35 20.3455 27.2618 20.1805 27.2261 20.0009C27.1904 19.8213 27.2087 19.6352 27.2788 19.466C27.3489 19.2969 27.4676 19.1523 27.6198 19.0506C27.7721 18.9489 27.9511 18.8946 28.1342 18.8947C28.3797 18.8947 28.615 18.9922 28.7886 19.1658C28.9622 19.3394 29.0597 19.5747 29.0597 19.8202ZM32 24L31.9998 24.0117L31.9472 27.368C31.9336 28.5782 31.4468 29.735 30.591 30.5908C29.7352 31.4466 28.5784 31.9334 27.3682 31.9471L24 32L23.9883 31.9998L20.632 31.9474C19.4217 31.9337 18.2649 31.4469 17.4091 30.5911C16.5533 29.7353 16.0664 28.5785 16.0527 27.3683L16 24L16.0002 23.9883L16.0526 20.6318C16.0664 19.4216 16.5533 18.2649 17.4091 17.4091C18.2649 16.5533 19.4217 16.0665 20.6319 16.0528L24 16L24.0117 16.0002L27.368 16.0526C28.5782 16.0663 29.735 16.5532 30.5908 17.409C31.4466 18.2648 31.9334 19.4215 31.9471 20.6317L32 24ZM30.51 24L30.4577 20.6552C30.4484 19.8325 30.1174 19.0461 29.5357 18.4643C28.9539 17.8825 28.1675 17.5516 27.3448 17.5423L24 17.4901L20.6552 17.5423C19.8325 17.5516 19.0461 17.8826 18.4643 18.4644C17.8826 19.0461 17.5516 19.8325 17.5422 20.6552L17.49 24L17.5422 27.3448C17.5516 28.1675 17.8825 28.9539 18.4643 29.5357C19.0461 30.1175 19.8325 30.4484 20.6552 30.4577L24 30.5099L27.3448 30.4577C28.1675 30.4484 28.9539 30.1175 29.5357 29.5357C30.1175 28.9539 30.4484 28.1675 30.4577 27.3448L30.51 24ZM28.1082 24C28.1082 24.8125 27.8672 25.6068 27.4158 26.2824C26.9644 26.958 26.3228 27.4846 25.5721 27.7955C24.8214 28.1065 23.9954 28.1878 23.1985 28.0293C22.4016 27.8708 21.6695 27.4795 21.095 26.9049C20.5204 26.3304 20.1292 25.5984 19.9707 24.8015C19.8122 24.0045 19.8935 23.1785 20.2045 22.4278C20.5154 21.6771 21.042 21.0355 21.7176 20.5841C22.3932 20.1327 23.1875 19.8918 24 19.8918C25.0892 19.893 26.1334 20.3262 26.9036 21.0964C27.6738 21.8666 28.107 22.9108 28.1082 24ZM26.6184 24C26.6184 23.4821 26.4648 22.9759 26.1771 22.5453C25.8894 22.1147 25.4804 21.7791 25.002 21.5809C24.5235 21.3827 23.997 21.3308 23.4891 21.4319C22.9812 21.5329 22.5146 21.7823 22.1484 22.1485C21.7822 22.5147 21.5329 22.9813 21.4318 23.4892C21.3308 23.9971 21.3827 24.5236 21.5809 25.0021C21.779 25.4805 22.1147 25.8895 22.5453 26.1772C22.9759 26.4649 23.4821 26.6184 24 26.6184C24.6942 26.6176 25.3597 26.3415 25.8506 25.8506C26.3415 25.3597 26.6176 24.6942 26.6184 24H26.6184Z" fill="#181B34"/>
<defs>
<linearGradient id="paint0_linear_95_97" x1="5" y1="13" x2="39" y2="42" gradientUnits="userSpaceOnUse">
<stop stop-color="#425292"/>
<stop offset="0.5" stop-color="#FD8A45"/>
<stop offset="1" stop-color="#DD4C8A"/>
</linearGradient>
</defs>
</svg>
