<svg width="62" height="62" viewBox="0 0 62 62" fill="none" xmlns="http://www.w3.org/2000/svg">
<circle cx="31" cy="31" r="31" fill="url(#paint0_linear_95_85)" fill-opacity="0.3"/>
<circle cx="31" cy="31" r="21" fill="url(#paint1_linear_95_85)"/>
<path d="M21 26L29.1649 31.7154C29.8261 32.1783 30.1567 32.4097 30.5163 32.4993C30.8339 32.5785 31.1661 32.5785 31.4837 32.4993C31.8433 32.4097 32.1739 32.1783 32.8351 31.7154L41 26M25.8 39H36.2C37.8802 39 38.7202 39 39.362 38.673C39.9265 38.3854 40.3854 37.9265 40.673 37.362C41 36.7202 41 35.8802 41 34.2V27.8C41 26.1198 41 25.2798 40.673 24.638C40.3854 24.0735 39.9265 23.6146 39.362 23.327C38.7202 23 37.8802 23 36.2 23H25.8C24.1198 23 23.2798 23 22.638 23.327C22.0735 23.6146 21.6146 24.0735 21.327 24.638C21 25.2798 21 26.1198 21 27.8V34.2C21 35.8802 21 36.7202 21.327 37.362C21.6146 37.9265 22.0735 38.3854 22.638 38.673C23.2798 39 24.1198 39 25.8 39Z" stroke="white" stroke-width="2" stroke-linecap="round" stroke-linejoin="round"/>
<defs>
<linearGradient id="paint0_linear_95_85" x1="0" y1="0" x2="62" y2="62" gradientUnits="userSpaceOnUse">
<stop offset="0.2" stop-color="#425292"/>
<stop offset="0.6" stop-color="#FD8A45"/>
<stop offset="1" stop-color="#DD4C8A"/>
</linearGradient>
<linearGradient id="paint1_linear_95_85" x1="10" y1="10" x2="52" y2="52" gradientUnits="userSpaceOnUse">
<stop offset="0.2" stop-color="#425292"/>
<stop offset="0.6" stop-color="#FD8A45"/>
<stop offset="1" stop-color="#DD4C8A"/>
</linearGradient>
</defs>
</svg>
